<svg xmlns="http://www.w3.org/2000/svg" viewBox="0 0 800 600" width="800" height="600" role="img" aria-label="Doner plate">
  <defs>
    <linearGradient id="d" x1="0" y1="0" x2="1" y2="1">
      <stop offset="0" stop-color="#F6E7CE"/><stop offset="1" stop-color="#EBC98E"/>
    </linearGradient>
  </defs>
  <rect width="800" height="600" fill="url(#d)"/>
  <circle cx="400" cy="300" r="240" fill="#fff" opacity="0.35"/>
  <ellipse cx="400" cy="430" rx="250" ry="60" fill="#000" opacity="0.10"/>
  <ellipse cx="400" cy="400" rx="250" ry="80" fill="#fff"/>
  <ellipse cx="400" cy="392" rx="205" ry="62" fill="#FBF7EF"/>
  <!-- meat pile -->
  <path d="M260 392 Q300 300 400 300 Q500 300 540 392 Q400 360 260 392 Z" fill="#a9652f"/>
  <path d="M280 392 Q330 330 400 330 Q470 330 520 392 Q400 372 280 392 Z" fill="#b97338"/>
  <path d="M300 392 Q360 356 400 356 Q440 356 500 392 Z" fill="#caa15a"/>
  <!-- garnish -->
  <circle cx="330" cy="390" r="12" fill="#54B05A"/>
  <circle cx="470" cy="388" r="12" fill="#E23744"/>
  <circle cx="400" cy="396" r="10" fill="#F2B807"/>
</svg>
