<svg xmlns="http://www.w3.org/2000/svg" viewBox="0 0 800 600" width="800" height="600" role="img" aria-label="Fries">
  <defs>
    <linearGradient id="s" x1="0" y1="0" x2="1" y2="1">
      <stop offset="0" stop-color="#FCE9CC"/><stop offset="1" stop-color="#F6CF95"/>
    </linearGradient>
  </defs>
  <rect width="800" height="600" fill="url(#s)"/>
  <circle cx="400" cy="300" r="240" fill="#fff" opacity="0.3"/>
  <ellipse cx="400" cy="500" rx="170" ry="34" fill="#000" opacity="0.10"/>
  <!-- fries -->
  <g>
    <rect x="330" y="170" width="26" height="200" rx="8" fill="#F2B807"/>
    <rect x="366" y="150" width="26" height="220" rx="8" fill="#F5C235"/>
    <rect x="402" y="160" width="26" height="210" rx="8" fill="#F2B807"/>
    <rect x="438" y="178" width="26" height="195" rx="8" fill="#F5C235"/>
    <rect x="348" y="200" width="26" height="170" rx="8" fill="#E9AE2E" transform="rotate(-8 361 285)"/>
    <rect x="420" y="200" width="26" height="170" rx="8" fill="#E9AE2E" transform="rotate(8 433 285)"/>
  </g>
  <!-- carton -->
  <path d="M300 330 L500 330 L470 470 L330 470 Z" fill="#E23744"/>
  <path d="M300 330 L500 330 L492 366 L308 366 Z" fill="#C81E2D"/>
  <rect x="372" y="386" width="56" height="60" rx="6" fill="#fff" opacity="0.85"/>
</svg>
